<svg xmlns="http://www.w3.org/2000/svg" width="774" height="120" viewBox="0 0 774 120" role="img" aria-label="GitHub contribution graph">
<style>text{font-family:-apple-system,BlinkMacSystemFont,"Segoe UI",sans-serif}</style>
<text x="46" y="13" font-size="10" fill="#6b7280">Oct</text>
<text x="102" y="13" font-size="10" fill="#6b7280">Nov</text>
<text x="172" y="13" font-size="10" fill="#6b7280">Dec</text>
<text x="228" y="13" font-size="10" fill="#6b7280">Jan</text>
<text x="284" y="13" font-size="10" fill="#6b7280">Feb</text>
<text x="340" y="13" font-size="10" fill="#6b7280">Mar</text>
<text x="410" y="13" font-size="10" fill="#6b7280">Apr</text>
<text x="466" y="13" font-size="10" fill="#6b7280">May</text>
<text x="536" y="13" font-size="10" fill="#6b7280">Jun</text>
<text x="592" y="13" font-size="10" fill="#6b7280">Jul</text>
<text x="648" y="13" font-size="10" fill="#6b7280">Aug</text>
<text x="718" y="13" font-size="10" fill="#6b7280">Sep</text>
<text x="0" y="33" font-size="10" fill="#6b7280">Mon</text>
<text x="0" y="61" font-size="10" fill="#6b7280">Wed</text>
<text x="0" y="89" font-size="10" fill="#6b7280">Fri</text>
<rect x="32" y="22" width="11" height="11" rx="2.5" fill="#c3d4ff"><title>3 contributions on 2025-09-28</title></rect>
<rect x="32" y="36" width="11" height="11" rx="2.5" fill="#ececea"><title>0 contributions on 2025-09-29</title></rect>
<rect x="32" y="50" width="11" height="11" rx="2.5" fill="#ececea"><title>0 contributions on 2025-09-30</title></rect>
<rect x="32" y="64" width="11" height="11" rx="2.5" fill="#ececea"><title>0 contributions on 2025-10-01</title></rect>
<rect x="32" y="78" width="11" height="11" rx="2.5" fill="#ececea"><title>0 contributions on 2025-10-02</title></rect>
<rect x="32" y="92" width="11" height="11" rx="2.5" fill="#ececea"><title>0 contributions on 2025-10-03</title></rect>
<rect x="32" y="106" width="11" height="11" rx="2.5" fill="#ececea"><title>0 contributions on 2025-10-04</title></rect>
<rect x="46" y="22" width="11" height="11" rx="2.5" fill="#ececea"><title>0 contributions on 2025-10-05</title></rect>
<rect x="46" y="36" width="11" height="11" rx="2.5" fill="#ececea"><title>0 contributions on 2025-10-06</title></rect>
<rect x="46" y="50" width="11" height="11" rx="2.5" fill="#ececea"><title>0 contributions on 2025-10-07</title></rect>
<rect x="46" y="64" width="11" height="11" rx="2.5" fill="#ececea"><title>0 contributions on 2025-10-08</title></rect>
<rect x="46" y="78" width="11" height="11" rx="2.5" fill="#ececea"><title>0 contributions on 2025-10-09</title></rect>
<rect x="46" y="92" width="11" height="11" rx="2.5" fill="#ececea"><title>0 contributions on 2025-10-10</title></rect>
<rect x="46" y="106" width="11" height="11" rx="2.5" fill="#ececea"><title>0 contributions on 2025-10-11</title></rect>
<rect x="60" y="22" width="11" height="11" rx="2.5" fill="#c3d4ff"><title>2 contributions on 2025-10-12</title></rect>
<rect x="60" y="36" width="11" height="11" rx="2.5" fill="#ececea"><title>0 contributions on 2025-10-13</title></rect>
<rect x="60" y="50" width="11" height="11" rx="2.5" fill="#ececea"><title>0 contributions on 2025-10-14</title></rect>
<rect x="60" y="64" width="11" height="11" rx="2.5" fill="#ececea"><title>0 contributions on 2025-10-15</title></rect>
<rect x="60" y="78" width="11" height="11" rx="2.5" fill="#ececea"><title>0 contributions on 2025-10-16</title></rect>
<rect x="60" y="92" width="11" height="11" rx="2.5" fill="#ececea"><title>0 contributions on 2025-10-17</title></rect>
<rect x="60" y="106" width="11" height="11" rx="2.5" fill="#ececea"><title>0 contributions on 2025-10-18</title></rect>
<rect x="74" y="22" width="11" height="11" rx="2.5" fill="#ececea"><title>0 contributions on 2025-10-19</title></rect>
<rect x="74" y="36" width="11" height="11" rx="2.5" fill="#ececea"><title>0 contributions on 2025-10-20</title></rect>
<rect x="74" y="50" width="11" height="11" rx="2.5" fill="#ececea"><title>0 contributions on 2025-10-21</title></rect>
<rect x="74" y="64" width="11" height="11" rx="2.5" fill="#ececea"><title>0 contributions on 2025-10-22</title></rect>
<rect x="74" y="78" width="11" height="11" rx="2.5" fill="#ececea"><title>0 contributions on 2025-10-23</title></rect>
<rect x="74" y="92" width="11" height="11" rx="2.5" fill="#ececea"><title>0 contributions on 2025-10-24</title></rect>
<rect x="74" y="106" width="11" height="11" rx="2.5" fill="#c3d4ff"><title>2 contributions on 2025-10-25</title></rect>
<rect x="88" y="22" width="11" height="11" rx="2.5" fill="#ececea"><title>0 contributions on 2025-10-26</title></rect>
<rect x="88" y="36" width="11" height="11" rx="2.5" fill="#ececea"><title>0 contributions on 2025-10-27</title></rect>
<rect x="88" y="50" width="11" height="11" rx="2.5" fill="#ececea"><title>0 contributions on 2025-10-28</title></rect>
<rect x="88" y="64" width="11" height="11" rx="2.5" fill="#ececea"><title>0 contributions on 2025-10-29</title></rect>
<rect x="88" y="78" width="11" height="11" rx="2.5" fill="#ececea"><title>0 contributions on 2025-10-30</title></rect>
<rect x="88" y="92" width="11" height="11" rx="2.5" fill="#ececea"><title>0 contributions on 2025-10-31</title></rect>
<rect x="88" y="106" width="11" height="11" rx="2.5" fill="#ececea"><title>0 contributions on 2025-11-01</title></rect>
<rect x="102" y="22" width="11" height="11" rx="2.5" fill="#ececea"><title>0 contributions on 2025-11-02</title></rect>
<rect x="102" y="36" width="11" height="11" rx="2.5" fill="#ececea"><title>0 contributions on 2025-11-03</title></rect>
<rect x="102" y="50" width="11" height="11" rx="2.5" fill="#ececea"><title>0 contributions on 2025-11-04</title></rect>
<rect x="102" y="64" width="11" height="11" rx="2.5" fill="#ececea"><title>0 contributions on 2025-11-05</title></rect>
<rect x="102" y="78" width="11" height="11" rx="2.5" fill="#ececea"><title>0 contributions on 2025-11-06</title></rect>
<rect x="102" y="92" width="11" height="11" rx="2.5" fill="#ececea"><title>0 contributions on 2025-11-07</title></rect>
<rect x="102" y="106" width="11" height="11" rx="2.5" fill="#ececea"><title>0 contributions on 2025-11-08</title></rect>
<rect x="116" y="22" width="11" height="11" rx="2.5" fill="#ececea"><title>0 contributions on 2025-11-09</title></rect>
<rect x="116" y="36" width="11" height="11" rx="2.5" fill="#ececea"><title>0 contributions on 2025-11-10</title></rect>
<rect x="116" y="50" width="11" height="11" rx="2.5" fill="#ececea"><title>0 contributions on 2025-11-11</title></rect>
<rect x="116" y="64" width="11" height="11" rx="2.5" fill="#ececea"><title>0 contributions on 2025-11-12</title></rect>
<rect x="116" y="78" width="11" height="11" rx="2.5" fill="#ececea"><title>0 contributions on 2025-11-13</title></rect>
<rect x="116" y="92" width="11" height="11" rx="2.5" fill="#ececea"><title>0 contributions on 2025-11-14</title></rect>
<rect x="116" y="106" width="11" height="11" rx="2.5" fill="#ececea"><title>0 contributions on 2025-11-15</title></rect>
<rect x="130" y="22" width="11" height="11" rx="2.5" fill="#ececea"><title>0 contributions on 2025-11-16</title></rect>
<rect x="130" y="36" width="11" height="11" rx="2.5" fill="#ececea"><title>0 contributions on 2025-11-17</title></rect>
<rect x="130" y="50" width="11" height="11" rx="2.5" fill="#ececea"><title>0 contributions on 2025-11-18</title></rect>
<rect x="130" y="64" width="11" height="11" rx="2.5" fill="#ececea"><title>0 contributions on 2025-11-19</title></rect>
<rect x="130" y="78" width="11" height="11" rx="2.5" fill="#ececea"><title>0 contributions on 2025-11-20</title></rect>
<rect x="130" y="92" width="11" height="11" rx="2.5" fill="#ececea"><title>0 contributions on 2025-11-21</title></rect>
<rect x="130" y="106" width="11" height="11" rx="2.5" fill="#ececea"><title>0 contributions on 2025-11-22</title></rect>
<rect x="144" y="22" width="11" height="11" rx="2.5" fill="#ececea"><title>0 contributions on 2025-11-23</title></rect>
<rect x="144" y="36" width="11" height="11" rx="2.5" fill="#ececea"><title>0 contributions on 2025-11-24</title></rect>
<rect x="144" y="50" width="11" height="11" rx="2.5" fill="#ececea"><title>0 contributions on 2025-11-25</title></rect>
<rect x="144" y="64" width="11" height="11" rx="2.5" fill="#ececea"><title>0 contributions on 2025-11-26</title></rect>
<rect x="144" y="78" width="11" height="11" rx="2.5" fill="#ececea"><title>0 contributions on 2025-11-27</title></rect>
<rect x="144" y="92" width="11" height="11" rx="2.5" fill="#ececea"><title>0 contributions on 2025-11-28</title></rect>
<rect x="144" y="106" width="11" height="11" rx="2.5" fill="#c3d4ff"><title>8 contributions on 2025-11-29</title></rect>
<rect x="158" y="22" width="11" height="11" rx="2.5" fill="#ececea"><title>0 contributions on 2025-11-30</title></rect>
<rect x="158" y="36" width="11" height="11" rx="2.5" fill="#ececea"><title>0 contributions on 2025-12-01</title></rect>
<rect x="158" y="50" width="11" height="11" rx="2.5" fill="#ececea"><title>0 contributions on 2025-12-02</title></rect>
<rect x="158" y="64" width="11" height="11" rx="2.5" fill="#ececea"><title>0 contributions on 2025-12-03</title></rect>
<rect x="158" y="78" width="11" height="11" rx="2.5" fill="#ececea"><title>0 contributions on 2025-12-04</title></rect>
<rect x="158" y="92" width="11" height="11" rx="2.5" fill="#ececea"><title>0 contributions on 2025-12-05</title></rect>
<rect x="158" y="106" width="11" height="11" rx="2.5" fill="#ececea"><title>0 contributions on 2025-12-06</title></rect>
<rect x="172" y="22" width="11" height="11" rx="2.5" fill="#ececea"><title>0 contributions on 2025-12-07</title></rect>
<rect x="172" y="36" width="11" height="11" rx="2.5" fill="#ececea"><title>0 contributions on 2025-12-08</title></rect>
<rect x="172" y="50" width="11" height="11" rx="2.5" fill="#ececea"><title>0 contributions on 2025-12-09</title></rect>
<rect x="172" y="64" width="11" height="11" rx="2.5" fill="#ececea"><title>0 contributions on 2025-12-10</title></rect>
<rect x="172" y="78" width="11" height="11" rx="2.5" fill="#ececea"><title>0 contributions on 2025-12-11</title></rect>
<rect x="172" y="92" width="11" height="11" rx="2.5" fill="#ececea"><title>0 contributions on 2025-12-12</title></rect>
<rect x="172" y="106" width="11" height="11" rx="2.5" fill="#ececea"><title>0 contributions on 2025-12-13</title></rect>
<rect x="186" y="22" width="11" height="11" rx="2.5" fill="#ececea"><title>0 contributions on 2025-12-14</title></rect>
<rect x="186" y="36" width="11" height="11" rx="2.5" fill="#ececea"><title>0 contributions on 2025-12-15</title></rect>
<rect x="186" y="50" width="11" height="11" rx="2.5" fill="#ececea"><title>0 contributions on 2025-12-16</title></rect>
<rect x="186" y="64" width="11" height="11" rx="2.5" fill="#ececea"><title>0 contributions on 2025-12-17</title></rect>
<rect x="186" y="78" width="11" height="11" rx="2.5" fill="#ececea"><title>0 contributions on 2025-12-18</title></rect>
<rect x="186" y="92" width="11" height="11" rx="2.5" fill="#ececea"><title>0 contributions on 2025-12-19</title></rect>
<rect x="186" y="106" width="11" height="11" rx="2.5" fill="#ececea"><title>0 contributions on 2025-12-20</title></rect>
<rect x="200" y="22" width="11" height="11" rx="2.5" fill="#ececea"><title>0 contributions on 2025-12-21</title></rect>
<rect x="200" y="36" width="11" height="11" rx="2.5" fill="#ececea"><title>0 contributions on 2025-12-22</title></rect>
<rect x="200" y="50" width="11" height="11" rx="2.5" fill="#ececea"><title>0 contributions on 2025-12-23</title></rect>
<rect x="200" y="64" width="11" height="11" rx="2.5" fill="#ececea"><title>0 contributions on 2025-12-24</title></rect>
<rect x="200" y="78" width="11" height="11" rx="2.5" fill="#ececea"><title>0 contributions on 2025-12-25</title></rect>
<rect x="200" y="92" width="11" height="11" rx="2.5" fill="#ececea"><title>0 contributions on 2025-12-26</title></rect>
<rect x="200" y="106" width="11" height="11" rx="2.5" fill="#ececea"><title>0 contributions on 2025-12-27</title></rect>
<rect x="214" y="22" width="11" height="11" rx="2.5" fill="#ececea"><title>0 contributions on 2025-12-28</title></rect>
<rect x="214" y="36" width="11" height="11" rx="2.5" fill="#ececea"><title>0 contributions on 2025-12-29</title></rect>
<rect x="214" y="50" width="11" height="11" rx="2.5" fill="#ececea"><title>0 contributions on 2025-12-30</title></rect>
<rect x="214" y="64" width="11" height="11" rx="2.5" fill="#ececea"><title>0 contributions on 2025-12-31</title></rect>
<rect x="214" y="78" width="11" height="11" rx="2.5" fill="#c3d4ff"><title>7 contributions on 2026-01-01</title></rect>
<rect x="214" y="92" width="11" height="11" rx="2.5" fill="#c3d4ff"><title>11 contributions on 2026-01-02</title></rect>
<rect x="214" y="106" width="11" height="11" rx="2.5" fill="#c3d4ff"><title>11 contributions on 2026-01-03</title></rect>
<rect x="228" y="22" width="11" height="11" rx="2.5" fill="#c3d4ff"><title>11 contributions on 2026-01-04</title></rect>
<rect x="228" y="36" width="11" height="11" rx="2.5" fill="#c3d4ff"><title>11 contributions on 2026-01-05</title></rect>
<rect x="228" y="50" width="11" height="11" rx="2.5" fill="#c3d4ff"><title>11 contributions on 2026-01-06</title></rect>
<rect x="228" y="64" width="11" height="11" rx="2.5" fill="#c3d4ff"><title>11 contributions on 2026-01-07</title></rect>
<rect x="228" y="78" width="11" height="11" rx="2.5" fill="#c3d4ff"><title>11 contributions on 2026-01-08</title></rect>
<rect x="228" y="92" width="11" height="11" rx="2.5" fill="#c3d4ff"><title>11 contributions on 2026-01-09</title></rect>
<rect x="228" y="106" width="11" height="11" rx="2.5" fill="#c3d4ff"><title>11 contributions on 2026-01-10</title></rect>
<rect x="242" y="22" width="11" height="11" rx="2.5" fill="#c3d4ff"><title>11 contributions on 2026-01-11</title></rect>
<rect x="242" y="36" width="11" height="11" rx="2.5" fill="#c3d4ff"><title>11 contributions on 2026-01-12</title></rect>
<rect x="242" y="50" width="11" height="11" rx="2.5" fill="#c3d4ff"><title>11 contributions on 2026-01-13</title></rect>
<rect x="242" y="64" width="11" height="11" rx="2.5" fill="#c3d4ff"><title>11 contributions on 2026-01-14</title></rect>
<rect x="242" y="78" width="11" height="11" rx="2.5" fill="#c3d4ff"><title>11 contributions on 2026-01-15</title></rect>
<rect x="242" y="92" width="11" height="11" rx="2.5" fill="#c3d4ff"><title>11 contributions on 2026-01-16</title></rect>
<rect x="242" y="106" width="11" height="11" rx="2.5" fill="#5c86ff"><title>27 contributions on 2026-01-17</title></rect>
<rect x="256" y="22" width="11" height="11" rx="2.5" fill="#c3d4ff"><title>1 contributions on 2026-01-18</title></rect>
<rect x="256" y="36" width="11" height="11" rx="2.5" fill="#c3d4ff"><title>7 contributions on 2026-01-19</title></rect>
<rect x="256" y="50" width="11" height="11" rx="2.5" fill="#c3d4ff"><title>9 contributions on 2026-01-20</title></rect>
<rect x="256" y="64" width="11" height="11" rx="2.5" fill="#c3d4ff"><title>11 contributions on 2026-01-21</title></rect>
<rect x="256" y="78" width="11" height="11" rx="2.5" fill="#c3d4ff"><title>11 contributions on 2026-01-22</title></rect>
<rect x="256" y="92" width="11" height="11" rx="2.5" fill="#c3d4ff"><title>7 contributions on 2026-01-23</title></rect>
<rect x="256" y="106" width="11" height="11" rx="2.5" fill="#c3d4ff"><title>8 contributions on 2026-01-24</title></rect>
<rect x="270" y="22" width="11" height="11" rx="2.5" fill="#c3d4ff"><title>11 contributions on 2026-01-25</title></rect>
<rect x="270" y="36" width="11" height="11" rx="2.5" fill="#c3d4ff"><title>11 contributions on 2026-01-26</title></rect>
<rect x="270" y="50" width="11" height="11" rx="2.5" fill="#c3d4ff"><title>11 contributions on 2026-01-27</title></rect>
<rect x="270" y="64" width="11" height="11" rx="2.5" fill="#c3d4ff"><title>10 contributions on 2026-01-28</title></rect>
<rect x="270" y="78" width="11" height="11" rx="2.5" fill="#c3d4ff"><title>11 contributions on 2026-01-29</title></rect>
<rect x="270" y="92" width="11" height="11" rx="2.5" fill="#c3d4ff"><title>11 contributions on 2026-01-30</title></rect>
<rect x="270" y="106" width="11" height="11" rx="2.5" fill="#c3d4ff"><title>10 contributions on 2026-01-31</title></rect>
<rect x="284" y="22" width="11" height="11" rx="2.5" fill="#8fabff"><title>12 contributions on 2026-02-01</title></rect>
<rect x="284" y="36" width="11" height="11" rx="2.5" fill="#c3d4ff"><title>10 contributions on 2026-02-02</title></rect>
<rect x="284" y="50" width="11" height="11" rx="2.5" fill="#c3d4ff"><title>8 contributions on 2026-02-03</title></rect>
<rect x="284" y="64" width="11" height="11" rx="2.5" fill="#c3d4ff"><title>7 contributions on 2026-02-04</title></rect>
<rect x="284" y="78" width="11" height="11" rx="2.5" fill="#c3d4ff"><title>11 contributions on 2026-02-05</title></rect>
<rect x="284" y="92" width="11" height="11" rx="2.5" fill="#c3d4ff"><title>7 contributions on 2026-02-06</title></rect>
<rect x="284" y="106" width="11" height="11" rx="2.5" fill="#c3d4ff"><title>7 contributions on 2026-02-07</title></rect>
<rect x="298" y="22" width="11" height="11" rx="2.5" fill="#c3d4ff"><title>9 contributions on 2026-02-08</title></rect>
<rect x="298" y="36" width="11" height="11" rx="2.5" fill="#c3d4ff"><title>7 contributions on 2026-02-09</title></rect>
<rect x="298" y="50" width="11" height="11" rx="2.5" fill="#c3d4ff"><title>10 contributions on 2026-02-10</title></rect>
<rect x="298" y="64" width="11" height="11" rx="2.5" fill="#c3d4ff"><title>7 contributions on 2026-02-11</title></rect>
<rect x="298" y="78" width="11" height="11" rx="2.5" fill="#c3d4ff"><title>11 contributions on 2026-02-12</title></rect>
<rect x="298" y="92" width="11" height="11" rx="2.5" fill="#c3d4ff"><title>9 contributions on 2026-02-13</title></rect>
<rect x="298" y="106" width="11" height="11" rx="2.5" fill="#c3d4ff"><title>8 contributions on 2026-02-14</title></rect>
<rect x="312" y="22" width="11" height="11" rx="2.5" fill="#c3d4ff"><title>10 contributions on 2026-02-15</title></rect>
<rect x="312" y="36" width="11" height="11" rx="2.5" fill="#c3d4ff"><title>9 contributions on 2026-02-16</title></rect>
<rect x="312" y="50" width="11" height="11" rx="2.5" fill="#c3d4ff"><title>9 contributions on 2026-02-17</title></rect>
<rect x="312" y="64" width="11" height="11" rx="2.5" fill="#c3d4ff"><title>9 contributions on 2026-02-18</title></rect>
<rect x="312" y="78" width="11" height="11" rx="2.5" fill="#c3d4ff"><title>10 contributions on 2026-02-19</title></rect>
<rect x="312" y="92" width="11" height="11" rx="2.5" fill="#ececea"><title>0 contributions on 2026-02-20</title></rect>
<rect x="312" y="106" width="11" height="11" rx="2.5" fill="#ececea"><title>0 contributions on 2026-02-21</title></rect>
<rect x="326" y="22" width="11" height="11" rx="2.5" fill="#ececea"><title>0 contributions on 2026-02-22</title></rect>
<rect x="326" y="36" width="11" height="11" rx="2.5" fill="#ececea"><title>0 contributions on 2026-02-23</title></rect>
<rect x="326" y="50" width="11" height="11" rx="2.5" fill="#ececea"><title>0 contributions on 2026-02-24</title></rect>
<rect x="326" y="64" width="11" height="11" rx="2.5" fill="#ececea"><title>0 contributions on 2026-02-25</title></rect>
<rect x="326" y="78" width="11" height="11" rx="2.5" fill="#ececea"><title>0 contributions on 2026-02-26</title></rect>
<rect x="326" y="92" width="11" height="11" rx="2.5" fill="#ececea"><title>0 contributions on 2026-02-27</title></rect>
<rect x="326" y="106" width="11" height="11" rx="2.5" fill="#ececea"><title>0 contributions on 2026-02-28</title></rect>
<rect x="340" y="22" width="11" height="11" rx="2.5" fill="#ececea"><title>0 contributions on 2026-03-01</title></rect>
<rect x="340" y="36" width="11" height="11" rx="2.5" fill="#ececea"><title>0 contributions on 2026-03-02</title></rect>
<rect x="340" y="50" width="11" height="11" rx="2.5" fill="#ececea"><title>0 contributions on 2026-03-03</title></rect>
<rect x="340" y="64" width="11" height="11" rx="2.5" fill="#ececea"><title>0 contributions on 2026-03-04</title></rect>
<rect x="340" y="78" width="11" height="11" rx="2.5" fill="#ececea"><title>0 contributions on 2026-03-05</title></rect>
<rect x="340" y="92" width="11" height="11" rx="2.5" fill="#ececea"><title>0 contributions on 2026-03-06</title></rect>
<rect x="340" y="106" width="11" height="11" rx="2.5" fill="#ececea"><title>0 contributions on 2026-03-07</title></rect>
<rect x="354" y="22" width="11" height="11" rx="2.5" fill="#ececea"><title>0 contributions on 2026-03-08</title></rect>
<rect x="354" y="36" width="11" height="11" rx="2.5" fill="#ececea"><title>0 contributions on 2026-03-09</title></rect>
<rect x="354" y="50" width="11" height="11" rx="2.5" fill="#ececea"><title>0 contributions on 2026-03-10</title></rect>
<rect x="354" y="64" width="11" height="11" rx="2.5" fill="#ececea"><title>0 contributions on 2026-03-11</title></rect>
<rect x="354" y="78" width="11" height="11" rx="2.5" fill="#ececea"><title>0 contributions on 2026-03-12</title></rect>
<rect x="354" y="92" width="11" height="11" rx="2.5" fill="#ececea"><title>0 contributions on 2026-03-13</title></rect>
<rect x="354" y="106" width="11" height="11" rx="2.5" fill="#ececea"><title>0 contributions on 2026-03-14</title></rect>
<rect x="368" y="22" width="11" height="11" rx="2.5" fill="#ececea"><title>0 contributions on 2026-03-15</title></rect>
<rect x="368" y="36" width="11" height="11" rx="2.5" fill="#ececea"><title>0 contributions on 2026-03-16</title></rect>
<rect x="368" y="50" width="11" height="11" rx="2.5" fill="#ececea"><title>0 contributions on 2026-03-17</title></rect>
<rect x="368" y="64" width="11" height="11" rx="2.5" fill="#ececea"><title>0 contributions on 2026-03-18</title></rect>
<rect x="368" y="78" width="11" height="11" rx="2.5" fill="#ececea"><title>0 contributions on 2026-03-19</title></rect>
<rect x="368" y="92" width="11" height="11" rx="2.5" fill="#ececea"><title>0 contributions on 2026-03-20</title></rect>
<rect x="368" y="106" width="11" height="11" rx="2.5" fill="#ececea"><title>0 contributions on 2026-03-21</title></rect>
<rect x="382" y="22" width="11" height="11" rx="2.5" fill="#ececea"><title>0 contributions on 2026-03-22</title></rect>
<rect x="382" y="36" width="11" height="11" rx="2.5" fill="#ececea"><title>0 contributions on 2026-03-23</title></rect>
<rect x="382" y="50" width="11" height="11" rx="2.5" fill="#ececea"><title>0 contributions on 2026-03-24</title></rect>
<rect x="382" y="64" width="11" height="11" rx="2.5" fill="#ececea"><title>0 contributions on 2026-03-25</title></rect>
<rect x="382" y="78" width="11" height="11" rx="2.5" fill="#ececea"><title>0 contributions on 2026-03-26</title></rect>
<rect x="382" y="92" width="11" height="11" rx="2.5" fill="#ececea"><title>0 contributions on 2026-03-27</title></rect>
<rect x="382" y="106" width="11" height="11" rx="2.5" fill="#ececea"><title>0 contributions on 2026-03-28</title></rect>
<rect x="396" y="22" width="11" height="11" rx="2.5" fill="#ececea"><title>0 contributions on 2026-03-29</title></rect>
<rect x="396" y="36" width="11" height="11" rx="2.5" fill="#ececea"><title>0 contributions on 2026-03-30</title></rect>
<rect x="396" y="50" width="11" height="11" rx="2.5" fill="#c3d4ff"><title>1 contributions on 2026-03-31</title></rect>
<rect x="396" y="64" width="11" height="11" rx="2.5" fill="#ececea"><title>0 contributions on 2026-04-01</title></rect>
<rect x="396" y="78" width="11" height="11" rx="2.5" fill="#ececea"><title>0 contributions on 2026-04-02</title></rect>
<rect x="396" y="92" width="11" height="11" rx="2.5" fill="#ececea"><title>0 contributions on 2026-04-03</title></rect>
<rect x="396" y="106" width="11" height="11" rx="2.5" fill="#ececea"><title>0 contributions on 2026-04-04</title></rect>
<rect x="410" y="22" width="11" height="11" rx="2.5" fill="#c3d4ff"><title>1 contributions on 2026-04-05</title></rect>
<rect x="410" y="36" width="11" height="11" rx="2.5" fill="#ececea"><title>0 contributions on 2026-04-06</title></rect>
<rect x="410" y="50" width="11" height="11" rx="2.5" fill="#ececea"><title>0 contributions on 2026-04-07</title></rect>
<rect x="410" y="64" width="11" height="11" rx="2.5" fill="#ececea"><title>0 contributions on 2026-04-08</title></rect>
<rect x="410" y="78" width="11" height="11" rx="2.5" fill="#ececea"><title>0 contributions on 2026-04-09</title></rect>
<rect x="410" y="92" width="11" height="11" rx="2.5" fill="#ececea"><title>0 contributions on 2026-04-10</title></rect>
<rect x="410" y="106" width="11" height="11" rx="2.5" fill="#ececea"><title>0 contributions on 2026-04-11</title></rect>
<rect x="424" y="22" width="11" height="11" rx="2.5" fill="#ececea"><title>0 contributions on 2026-04-12</title></rect>
<rect x="424" y="36" width="11" height="11" rx="2.5" fill="#ececea"><title>0 contributions on 2026-04-13</title></rect>
<rect x="424" y="50" width="11" height="11" rx="2.5" fill="#ececea"><title>0 contributions on 2026-04-14</title></rect>
<rect x="424" y="64" width="11" height="11" rx="2.5" fill="#ececea"><title>0 contributions on 2026-04-15</title></rect>
<rect x="424" y="78" width="11" height="11" rx="2.5" fill="#ececea"><title>0 contributions on 2026-04-16</title></rect>
<rect x="424" y="92" width="11" height="11" rx="2.5" fill="#ececea"><title>0 contributions on 2026-04-17</title></rect>
<rect x="424" y="106" width="11" height="11" rx="2.5" fill="#ececea"><title>0 contributions on 2026-04-18</title></rect>
<rect x="438" y="22" width="11" height="11" rx="2.5" fill="#ececea"><title>0 contributions on 2026-04-19</title></rect>
<rect x="438" y="36" width="11" height="11" rx="2.5" fill="#ececea"><title>0 contributions on 2026-04-20</title></rect>
<rect x="438" y="50" width="11" height="11" rx="2.5" fill="#ececea"><title>0 contributions on 2026-04-21</title></rect>
<rect x="438" y="64" width="11" height="11" rx="2.5" fill="#ececea"><title>0 contributions on 2026-04-22</title></rect>
<rect x="438" y="78" width="11" height="11" rx="2.5" fill="#ececea"><title>0 contributions on 2026-04-23</title></rect>
<rect x="438" y="92" width="11" height="11" rx="2.5" fill="#ececea"><title>0 contributions on 2026-04-24</title></rect>
<rect x="438" y="106" width="11" height="11" rx="2.5" fill="#ececea"><title>0 contributions on 2026-04-25</title></rect>
<rect x="452" y="22" width="11" height="11" rx="2.5" fill="#ececea"><title>0 contributions on 2026-04-26</title></rect>
<rect x="452" y="36" width="11" height="11" rx="2.5" fill="#ececea"><title>0 contributions on 2026-04-27</title></rect>
<rect x="452" y="50" width="11" height="11" rx="2.5" fill="#ececea"><title>0 contributions on 2026-04-28</title></rect>
<rect x="452" y="64" width="11" height="11" rx="2.5" fill="#ececea"><title>0 contributions on 2026-04-29</title></rect>
<rect x="452" y="78" width="11" height="11" rx="2.5" fill="#ececea"><title>0 contributions on 2026-04-30</title></rect>
<rect x="452" y="92" width="11" height="11" rx="2.5" fill="#c3d4ff"><title>1 contributions on 2026-05-01</title></rect>
<rect x="452" y="106" width="11" height="11" rx="2.5" fill="#ececea"><title>0 contributions on 2026-05-02</title></rect>
<rect x="466" y="22" width="11" height="11" rx="2.5" fill="#ececea"><title>0 contributions on 2026-05-03</title></rect>
<rect x="466" y="36" width="11" height="11" rx="2.5" fill="#ececea"><title>0 contributions on 2026-05-04</title></rect>
<rect x="466" y="50" width="11" height="11" rx="2.5" fill="#ececea"><title>0 contributions on 2026-05-05</title></rect>
<rect x="466" y="64" width="11" height="11" rx="2.5" fill="#ececea"><title>0 contributions on 2026-05-06</title></rect>
<rect x="466" y="78" width="11" height="11" rx="2.5" fill="#ececea"><title>0 contributions on 2026-05-07</title></rect>
<rect x="466" y="92" width="11" height="11" rx="2.5" fill="#ececea"><title>0 contributions on 2026-05-08</title></rect>
<rect x="466" y="106" width="11" height="11" rx="2.5" fill="#ececea"><title>0 contributions on 2026-05-09</title></rect>
<rect x="480" y="22" width="11" height="11" rx="2.5" fill="#ececea"><title>0 contributions on 2026-05-10</title></rect>
<rect x="480" y="36" width="11" height="11" rx="2.5" fill="#ececea"><title>0 contributions on 2026-05-11</title></rect>
<rect x="480" y="50" width="11" height="11" rx="2.5" fill="#ececea"><title>0 contributions on 2026-05-12</title></rect>
<rect x="480" y="64" width="11" height="11" rx="2.5" fill="#ececea"><title>0 contributions on 2026-05-13</title></rect>
<rect x="480" y="78" width="11" height="11" rx="2.5" fill="#ececea"><title>0 contributions on 2026-05-14</title></rect>
<rect x="480" y="92" width="11" height="11" rx="2.5" fill="#ececea"><title>0 contributions on 2026-05-15</title></rect>
<rect x="480" y="106" width="11" height="11" rx="2.5" fill="#ececea"><title>0 contributions on 2026-05-16</title></rect>
<rect x="494" y="22" width="11" height="11" rx="2.5" fill="#ececea"><title>0 contributions on 2026-05-17</title></rect>
<rect x="494" y="36" width="11" height="11" rx="2.5" fill="#ececea"><title>0 contributions on 2026-05-18</title></rect>
<rect x="494" y="50" width="11" height="11" rx="2.5" fill="#ececea"><title>0 contributions on 2026-05-19</title></rect>
<rect x="494" y="64" width="11" height="11" rx="2.5" fill="#ececea"><title>0 contributions on 2026-05-20</title></rect>
<rect x="494" y="78" width="11" height="11" rx="2.5" fill="#ececea"><title>0 contributions on 2026-05-21</title></rect>
<rect x="494" y="92" width="11" height="11" rx="2.5" fill="#ececea"><title>0 contributions on 2026-05-22</title></rect>
<rect x="494" y="106" width="11" height="11" rx="2.5" fill="#ececea"><title>0 contributions on 2026-05-23</title></rect>
<rect x="508" y="22" width="11" height="11" rx="2.5" fill="#ececea"><title>0 contributions on 2026-05-24</title></rect>
<rect x="508" y="36" width="11" height="11" rx="2.5" fill="#ececea"><title>0 contributions on 2026-05-25</title></rect>
<rect x="508" y="50" width="11" height="11" rx="2.5" fill="#ececea"><title>0 contributions on 2026-05-26</title></rect>
<rect x="508" y="64" width="11" height="11" rx="2.5" fill="#ececea"><title>0 contributions on 2026-05-27</title></rect>
<rect x="508" y="78" width="11" height="11" rx="2.5" fill="#ececea"><title>0 contributions on 2026-05-28</title></rect>
<rect x="508" y="92" width="11" height="11" rx="2.5" fill="#ececea"><title>0 contributions on 2026-05-29</title></rect>
<rect x="508" y="106" width="11" height="11" rx="2.5" fill="#ececea"><title>0 contributions on 2026-05-30</title></rect>
<rect x="522" y="22" width="11" height="11" rx="2.5" fill="#ececea"><title>0 contributions on 2026-05-31</title></rect>
<rect x="522" y="36" width="11" height="11" rx="2.5" fill="#ececea"><title>0 contributions on 2026-06-01</title></rect>
<rect x="522" y="50" width="11" height="11" rx="2.5" fill="#ececea"><title>0 contributions on 2026-06-02</title></rect>
<rect x="522" y="64" width="11" height="11" rx="2.5" fill="#ececea"><title>0 contributions on 2026-06-03</title></rect>
<rect x="522" y="78" width="11" height="11" rx="2.5" fill="#ececea"><title>0 contributions on 2026-06-04</title></rect>
<rect x="522" y="92" width="11" height="11" rx="2.5" fill="#ececea"><title>0 contributions on 2026-06-05</title></rect>
<rect x="522" y="106" width="11" height="11" rx="2.5" fill="#ececea"><title>0 contributions on 2026-06-06</title></rect>
<rect x="536" y="22" width="11" height="11" rx="2.5" fill="#ececea"><title>0 contributions on 2026-06-07</title></rect>
<rect x="536" y="36" width="11" height="11" rx="2.5" fill="#ececea"><title>0 contributions on 2026-06-08</title></rect>
<rect x="536" y="50" width="11" height="11" rx="2.5" fill="#ececea"><title>0 contributions on 2026-06-09</title></rect>
<rect x="536" y="64" width="11" height="11" rx="2.5" fill="#ececea"><title>0 contributions on 2026-06-10</title></rect>
<rect x="536" y="78" width="11" height="11" rx="2.5" fill="#ececea"><title>0 contributions on 2026-06-11</title></rect>
<rect x="536" y="92" width="11" height="11" rx="2.5" fill="#ececea"><title>0 contributions on 2026-06-12</title></rect>
<rect x="536" y="106" width="11" height="11" rx="2.5" fill="#ececea"><title>0 contributions on 2026-06-13</title></rect>
<rect x="550" y="22" width="11" height="11" rx="2.5" fill="#ececea"><title>0 contributions on 2026-06-14</title></rect>
<rect x="550" y="36" width="11" height="11" rx="2.5" fill="#c3d4ff"><title>7 contributions on 2026-06-15</title></rect>
<rect x="550" y="50" width="11" height="11" rx="2.5" fill="#c3d4ff"><title>1 contributions on 2026-06-16</title></rect>
<rect x="550" y="64" width="11" height="11" rx="2.5" fill="#c3d4ff"><title>1 contributions on 2026-06-17</title></rect>
<rect x="550" y="78" width="11" height="11" rx="2.5" fill="#ececea"><title>0 contributions on 2026-06-18</title></rect>
<rect x="550" y="92" width="11" height="11" rx="2.5" fill="#ececea"><title>0 contributions on 2026-06-19</title></rect>
<rect x="550" y="106" width="11" height="11" rx="2.5" fill="#ececea"><title>0 contributions on 2026-06-20</title></rect>
<rect x="564" y="22" width="11" height="11" rx="2.5" fill="#ececea"><title>0 contributions on 2026-06-21</title></rect>
<rect x="564" y="36" width="11" height="11" rx="2.5" fill="#ececea"><title>0 contributions on 2026-06-22</title></rect>
<rect x="564" y="50" width="11" height="11" rx="2.5" fill="#ececea"><title>0 contributions on 2026-06-23</title></rect>
<rect x="564" y="64" width="11" height="11" rx="2.5" fill="#ececea"><title>0 contributions on 2026-06-24</title></rect>
<rect x="564" y="78" width="11" height="11" rx="2.5" fill="#ececea"><title>0 contributions on 2026-06-25</title></rect>
<rect x="564" y="92" width="11" height="11" rx="2.5" fill="#c3d4ff"><title>1 contributions on 2026-06-26</title></rect>
<rect x="564" y="106" width="11" height="11" rx="2.5" fill="#c3d4ff"><title>3 contributions on 2026-06-27</title></rect>
<rect x="578" y="22" width="11" height="11" rx="2.5" fill="#ececea"><title>0 contributions on 2026-06-28</title></rect>
<rect x="578" y="36" width="11" height="11" rx="2.5" fill="#ececea"><title>0 contributions on 2026-06-29</title></rect>
<rect x="578" y="50" width="11" height="11" rx="2.5" fill="#ececea"><title>0 contributions on 2026-06-30</title></rect>
<rect x="578" y="64" width="11" height="11" rx="2.5" fill="#ececea"><title>0 contributions on 2026-07-01</title></rect>
<rect x="578" y="78" width="11" height="11" rx="2.5" fill="#ececea"><title>0 contributions on 2026-07-02</title></rect>
<rect x="578" y="92" width="11" height="11" rx="2.5" fill="#ececea"><title>0 contributions on 2026-07-03</title></rect>
<rect x="578" y="106" width="11" height="11" rx="2.5" fill="#c3d4ff"><title>1 contributions on 2026-07-04</title></rect>
<rect x="592" y="22" width="11" height="11" rx="2.5" fill="#ececea"><title>0 contributions on 2026-07-05</title></rect>
<rect x="592" y="36" width="11" height="11" rx="2.5" fill="#c3d4ff"><title>1 contributions on 2026-07-06</title></rect>
<rect x="592" y="50" width="11" height="11" rx="2.5" fill="#c3d4ff"><title>4 contributions on 2026-07-07</title></rect>
<rect x="592" y="64" width="11" height="11" rx="2.5" fill="#ececea"><title>0 contributions on 2026-07-08</title></rect>
<rect x="592" y="78" width="11" height="11" rx="2.5" fill="#c3d4ff"><title>1 contributions on 2026-07-09</title></rect>
<rect x="592" y="92" width="11" height="11" rx="2.5" fill="#c3d4ff"><title>1 contributions on 2026-07-10</title></rect>
<rect x="592" y="106" width="11" height="11" rx="2.5" fill="#ececea"><title>0 contributions on 2026-07-11</title></rect>
<rect x="606" y="22" width="11" height="11" rx="2.5" fill="#ececea"><title>0 contributions on 2026-07-12</title></rect>
<rect x="606" y="36" width="11" height="11" rx="2.5" fill="#ececea"><title>0 contributions on 2026-07-13</title></rect>
<rect x="606" y="50" width="11" height="11" rx="2.5" fill="#ececea"><title>0 contributions on 2026-07-14</title></rect>
<rect x="606" y="64" width="11" height="11" rx="2.5" fill="#ececea"><title>0 contributions on 2026-07-15</title></rect>
<rect x="606" y="78" width="11" height="11" rx="2.5" fill="#ececea"><title>0 contributions on 2026-07-16</title></rect>
<rect x="606" y="92" width="11" height="11" rx="2.5" fill="#ececea"><title>0 contributions on 2026-07-17</title></rect>
<rect x="606" y="106" width="11" height="11" rx="2.5" fill="#ececea"><title>0 contributions on 2026-07-18</title></rect>
<rect x="620" y="22" width="11" height="11" rx="2.5" fill="#ececea"><title>0 contributions on 2026-07-19</title></rect>
<rect x="620" y="36" width="11" height="11" rx="2.5" fill="#ececea"><title>0 contributions on 2026-07-20</title></rect>
<rect x="620" y="50" width="11" height="11" rx="2.5" fill="#ececea"><title>0 contributions on 2026-07-21</title></rect>
<rect x="620" y="64" width="11" height="11" rx="2.5" fill="#ececea"><title>0 contributions on 2026-07-22</title></rect>
<rect x="620" y="78" width="11" height="11" rx="2.5" fill="#ececea"><title>0 contributions on 2026-07-23</title></rect>
<rect x="620" y="92" width="11" height="11" rx="2.5" fill="#c3d4ff"><title>6 contributions on 2026-07-24</title></rect>
<rect x="620" y="106" width="11" height="11" rx="2.5" fill="#c3d4ff"><title>3 contributions on 2026-07-25</title></rect>
<rect x="634" y="22" width="11" height="11" rx="2.5" fill="#c3d4ff"><title>2 contributions on 2026-07-26</title></rect>
<rect x="634" y="36" width="11" height="11" rx="2.5" fill="#c3d4ff"><title>2 contributions on 2026-07-27</title></rect>
<rect x="634" y="50" width="11" height="11" rx="2.5" fill="#c3d4ff"><title>5 contributions on 2026-07-28</title></rect>
<rect x="634" y="64" width="11" height="11" rx="2.5" fill="#ececea"><title>0 contributions on 2026-07-29</title></rect>
<rect x="634" y="78" width="11" height="11" rx="2.5" fill="#ececea"><title>0 contributions on 2026-07-30</title></rect>
<rect x="634" y="92" width="11" height="11" rx="2.5" fill="#c3d4ff"><title>4 contributions on 2026-07-31</title></rect>
<rect x="634" y="106" width="11" height="11" rx="2.5" fill="#ececea"><title>0 contributions on 2026-08-01</title></rect>
<rect x="648" y="22" width="11" height="11" rx="2.5" fill="#ececea"><title>0 contributions on 2026-08-02</title></rect>
<rect x="648" y="36" width="11" height="11" rx="2.5" fill="#c3d4ff"><title>1 contributions on 2026-08-03</title></rect>
<rect x="648" y="50" width="11" height="11" rx="2.5" fill="#ececea"><title>0 contributions on 2026-08-04</title></rect>
<rect x="648" y="64" width="11" height="11" rx="2.5" fill="#ececea"><title>0 contributions on 2026-08-05</title></rect>
<rect x="648" y="78" width="11" height="11" rx="2.5" fill="#ececea"><title>0 contributions on 2026-08-06</title></rect>
<rect x="648" y="92" width="11" height="11" rx="2.5" fill="#ececea"><title>0 contributions on 2026-08-07</title></rect>
<rect x="648" y="106" width="11" height="11" rx="2.5" fill="#ececea"><title>0 contributions on 2026-08-08</title></rect>
<rect x="662" y="22" width="11" height="11" rx="2.5" fill="#ececea"><title>0 contributions on 2026-08-09</title></rect>
<rect x="662" y="36" width="11" height="11" rx="2.5" fill="#ececea"><title>0 contributions on 2026-08-10</title></rect>
<rect x="662" y="50" width="11" height="11" rx="2.5" fill="#ececea"><title>0 contributions on 2026-08-11</title></rect>
<rect x="662" y="64" width="11" height="11" rx="2.5" fill="#ececea"><title>0 contributions on 2026-08-12</title></rect>
<rect x="662" y="78" width="11" height="11" rx="2.5" fill="#ececea"><title>0 contributions on 2026-08-13</title></rect>
<rect x="662" y="92" width="11" height="11" rx="2.5" fill="#ececea"><title>0 contributions on 2026-08-14</title></rect>
<rect x="662" y="106" width="11" height="11" rx="2.5" fill="#ececea"><title>0 contributions on 2026-08-15</title></rect>
<rect x="676" y="22" width="11" height="11" rx="2.5" fill="#ececea"><title>0 contributions on 2026-08-16</title></rect>
<rect x="676" y="36" width="11" height="11" rx="2.5" fill="#ececea"><title>0 contributions on 2026-08-17</title></rect>
<rect x="676" y="50" width="11" height="11" rx="2.5" fill="#ececea"><title>0 contributions on 2026-08-18</title></rect>
<rect x="676" y="64" width="11" height="11" rx="2.5" fill="#ececea"><title>0 contributions on 2026-08-19</title></rect>
<rect x="676" y="78" width="11" height="11" rx="2.5" fill="#ececea"><title>0 contributions on 2026-08-20</title></rect>
<rect x="676" y="92" width="11" height="11" rx="2.5" fill="#ececea"><title>0 contributions on 2026-08-21</title></rect>
<rect x="676" y="106" width="11" height="11" rx="2.5" fill="#c3d4ff"><title>2 contributions on 2026-08-22</title></rect>
<rect x="690" y="22" width="11" height="11" rx="2.5" fill="#c3d4ff"><title>6 contributions on 2026-08-23</title></rect>
<rect x="690" y="36" width="11" height="11" rx="2.5" fill="#ececea"><title>0 contributions on 2026-08-24</title></rect>
<rect x="690" y="50" width="11" height="11" rx="2.5" fill="#ececea"><title>0 contributions on 2026-08-25</title></rect>
<rect x="690" y="64" width="11" height="11" rx="2.5" fill="#ececea"><title>0 contributions on 2026-08-26</title></rect>
<rect x="690" y="78" width="11" height="11" rx="2.5" fill="#ececea"><title>0 contributions on 2026-08-27</title></rect>
<rect x="690" y="92" width="11" height="11" rx="2.5" fill="#ececea"><title>0 contributions on 2026-08-28</title></rect>
<rect x="690" y="106" width="11" height="11" rx="2.5" fill="#ececea"><title>0 contributions on 2026-08-29</title></rect>
<rect x="704" y="22" width="11" height="11" rx="2.5" fill="#ececea"><title>0 contributions on 2026-08-30</title></rect>
<rect x="704" y="36" width="11" height="11" rx="2.5" fill="#ececea"><title>0 contributions on 2026-08-31</title></rect>
<rect x="704" y="50" width="11" height="11" rx="2.5" fill="#ececea"><title>0 contributions on 2026-09-01</title></rect>
<rect x="704" y="64" width="11" height="11" rx="2.5" fill="#ececea"><title>0 contributions on 2026-09-02</title></rect>
<rect x="704" y="78" width="11" height="11" rx="2.5" fill="#ececea"><title>0 contributions on 2026-09-03</title></rect>
<rect x="704" y="92" width="11" height="11" rx="2.5" fill="#c3d4ff"><title>1 contributions on 2026-09-04</title></rect>
<rect x="704" y="106" width="11" height="11" rx="2.5" fill="#ececea"><title>0 contributions on 2026-09-05</title></rect>
<rect x="718" y="22" width="11" height="11" rx="2.5" fill="#ececea"><title>0 contributions on 2026-09-06</title></rect>
<rect x="718" y="36" width="11" height="11" rx="2.5" fill="#ececea"><title>0 contributions on 2026-09-07</title></rect>
<rect x="718" y="50" width="11" height="11" rx="2.5" fill="#ececea"><title>0 contributions on 2026-09-08</title></rect>
<rect x="718" y="64" width="11" height="11" rx="2.5" fill="#ececea"><title>0 contributions on 2026-09-09</title></rect>
<rect x="718" y="78" width="11" height="11" rx="2.5" fill="#ececea"><title>0 contributions on 2026-09-10</title></rect>
<rect x="718" y="92" width="11" height="11" rx="2.5" fill="#ececea"><title>0 contributions on 2026-09-11</title></rect>
<rect x="718" y="106" width="11" height="11" rx="2.5" fill="#ececea"><title>0 contributions on 2026-09-12</title></rect>
<rect x="732" y="22" width="11" height="11" rx="2.5" fill="#ececea"><title>0 contributions on 2026-09-13</title></rect>
<rect x="732" y="36" width="11" height="11" rx="2.5" fill="#ececea"><title>0 contributions on 2026-09-14</title></rect>
<rect x="732" y="50" width="11" height="11" rx="2.5" fill="#ececea"><title>0 contributions on 2026-09-15</title></rect>
<rect x="732" y="64" width="11" height="11" rx="2.5" fill="#ececea"><title>0 contributions on 2026-09-16</title></rect>
<rect x="732" y="78" width="11" height="11" rx="2.5" fill="#c3d4ff"><title>1 contributions on 2026-09-17</title></rect>
<rect x="732" y="92" width="11" height="11" rx="2.5" fill="#ececea"><title>0 contributions on 2026-09-18</title></rect>
<rect x="732" y="106" width="11" height="11" rx="2.5" fill="#ececea"><title>0 contributions on 2026-09-19</title></rect>
<rect x="746" y="22" width="11" height="11" rx="2.5" fill="#ececea"><title>0 contributions on 2026-09-20</title></rect>
<rect x="746" y="36" width="11" height="11" rx="2.5" fill="#ececea"><title>0 contributions on 2026-09-21</title></rect>
<rect x="746" y="50" width="11" height="11" rx="2.5" fill="#ececea"><title>0 contributions on 2026-09-22</title></rect>
<rect x="746" y="64" width="11" height="11" rx="2.5" fill="#ececea"><title>0 contributions on 2026-09-23</title></rect>
<rect x="746" y="78" width="11" height="11" rx="2.5" fill="#ececea"><title>0 contributions on 2026-09-24</title></rect>
<rect x="746" y="92" width="11" height="11" rx="2.5" fill="#2f6bff"><title>41 contributions on 2026-09-25</title></rect>
<rect x="746" y="106" width="11" height="11" rx="2.5" fill="#2f6bff"><title>45 contributions on 2026-09-26</title></rect>
<rect x="760" y="22" width="11" height="11" rx="2.5" fill="#8fabff"><title>22 contributions on 2026-09-27</title></rect>
<rect x="760" y="36" width="11" height="11" rx="2.5" fill="#c3d4ff"><title>4 contributions on 2026-09-28</title></rect>
<rect x="760" y="50" width="11" height="11" rx="2.5" fill="#c3d4ff"><title>5 contributions on 2026-09-29</title></rect>
<rect x="760" y="64" width="11" height="11" rx="2.5" fill="#c3d4ff"><title>3 contributions on 2026-09-30</title></rect>
<rect x="760" y="78" width="11" height="11" rx="2.5" fill="#c3d4ff"><title>4 contributions on 2026-10-01</title></rect>
<rect x="760" y="92" width="11" height="11" rx="2.5" fill="#c3d4ff"><title>4 contributions on 2026-10-02</title></rect>
</svg>